# xmcd CD database file generated by OrangeCD 5.2
#
# Track frame offsets:
#	150
#	18258
#	37392
#	56484
#	72687
#	86389
#	103398
#	117232
#	135401
#	150643
#	183188
#	200264
#	221858
#	262850
#
# Disc length: 3905 seconds
#
# Revision: 2
# Processed by: cddbd v1.5.1PL2 Copyright (c) Steve Scherf et al.
# Submitted via: OrangeCD 5.2
#
DISCID=c80f3f0e
DTITLE=Will Kimbrough - Daddy At The Women's Club
DYEAR=1900
DGENRE=Country
TTITLE0=Glory Be
TTITLE1=Cold Chill
TTITLE2=I Don't Like It
TTITLE3=Happy In Your Skin
TTITLE4=Cousin Darryl
TTITLE5=You Made Your Bed
TTITLE6=I Miss Ronald Reagan
TTITLE7=Nightmares
TTITLE8=Martin Luther
TTITLE9=Slide It In
TTITLE10=Vicky Smith Blues
TTITLE11=Too Much Truth
TTITLE12=The Powers That Be - Ooh La La
TTITLE13=Gloryland
EXTD=
EXTT0=
EXTT1=
EXTT2=
EXTT3=
EXTT4=
EXTT5=
EXTT6=
EXTT7=
EXTT8=
EXTT9=
EXTT10=
EXTT11=
EXTT12=
EXTT13=
PLAYORDER=
